<?xml version="1.0" standalone="no"?>
<!DOCTYPE svg PUBLIC "-//W3C//DTD SVG 20010904//EN"
 "http://www.w3.org/TR/2001/REC-SVG-20010904/DTD/svg10.dtd">
<svg version="1.0" xmlns="http://www.w3.org/2000/svg"
 width="85.500000px" height="128.000000px" viewBox="0 0 856.000000 1280.000000"
 preserveAspectRatio="xMidYMid meet">
<metadata>
Created by potrace 1.15, based on the work written by Peter Selinger 2001-2017
</metadata>
<g transform="translate(0.000000,1280.000000) scale(0.100000,-0.100000)"
fill="#ffffff" stroke="#000000">
<path d="M4875 11795 c-32 -8 -45 -24 -45 -53 0 -20 -6 -29 -21 -33 -12 -3
-19 -12 -17 -19 4 -13 56 -52 81 -61 8 -3 6 -10 -7 -19 -31 -24 -14 -65 30
-77 36 -10 84 -46 84 -63 0 -20 -62 -5 -108 26 -50 33 -72 33 -72 -1 0 -26
-30 -25 -61 1 -17 15 -37 25 -43 23 -17 -5 -76 -108 -76 -132 0 -11 16 -32 35
-48 19 -15 35 -37 35 -47 0 -25 10 -25 49 -3 29 17 32 17 60 0 16 -9 31 -17
34 -17 2 0 21 14 42 30 38 30 88 40 100 20 12 -19 -22 -56 -62 -68 -21 -6 -47
-18 -58 -27 -20 -15 -20 -15 5 -36 16 -14 20 -23 13 -26 -60 -21 -107 -91 -57
-86 18 2 21 -3 20 -40 l-1 -42 85 0 85 0 -3 65 c-1 49 0 61 8 48 6 -10 17 -18
25 -18 16 0 20 15 29 95 12 102 56 76 56 -33 l0 -64 31 6 31 6 -4 -53 -3 -52
47 -3 c76 -5 111 9 124 49 8 22 19 35 33 37 11 2 21 10 21 17 0 18 -48 55 -71
55 -26 0 -33 19 -15 39 9 10 16 20 16 23 0 2 -21 19 -47 35 -27 17 -59 43 -72
57 l-24 26 40 0 c32 0 50 -8 83 -35 50 -42 68 -44 76 -7 3 15 6 30 7 34 1 4
22 -8 46 -27 24 -19 47 -35 50 -35 17 0 56 94 56 133 -1 43 -36 111 -63 122
-8 3 -30 -9 -50 -25 -20 -17 -38 -27 -39 -23 0 5 -4 20 -7 36 -8 36 -26 34
-76 -8 -41 -34 -83 -45 -95 -25 -10 16 13 39 66 65 54 28 66 49 39 68 -19 13
-17 15 30 37 28 13 50 28 50 34 0 6 -12 22 -25 35 -14 13 -25 31 -25 41 0 32
-28 44 -103 44 l-72 1 3 -52 4 -51 -34 1 -33 2 0 -85 c0 -71 -3 -85 -17 -88
-12 -2 -19 9 -27 48 -6 28 -11 63 -11 79 0 15 -6 35 -13 46 -13 17 -15 17 -30
-5 -15 -22 -16 -20 -14 41 l2 64 -55 2 c-30 0 -64 -1 -75 -4z"/>
<path d="M6937 12793 c-10 -10 -17 -32 -17 -56 0 -35 -3 -41 -30 -50 -28 -10
-30 -14 -30 -62 0 -98 -32 -103 -47 -7 -7 51 -10 55 -38 60 -28 5 -30 8 -27
45 2 25 -3 48 -12 60 -16 19 -16 19 -30 1 -14 -17 -16 -17 -38 -2 -46 32 -98
8 -98 -46 0 -17 -7 -27 -20 -31 -13 -3 -20 -14 -20 -31 0 -20 8 -29 34 -40 30
-12 34 -19 33 -47 -2 -34 -1 -35 95 -94 18 -11 33 -27 33 -35 0 -26 -39 -22
-87 10 -55 37 -93 37 -92 3 0 -13 -1 -23 -2 -23 -2 0 -24 14 -48 32 -45 31
-46 31 -66 13 -11 -10 -19 -24 -16 -31 2 -6 -9 -24 -25 -40 -16 -15 -29 -32
-29 -37 0 -5 13 -21 29 -36 22 -20 28 -34 24 -50 -3 -11 0 -28 7 -36 11 -14
16 -14 39 1 14 9 38 28 53 41 l27 25 3 -33 c3 -29 6 -34 27 -31 13 1 38 15 57
31 40 35 72 47 87 32 17 -17 -1 -40 -64 -83 -53 -36 -56 -43 -44 -83 5 -17 0
-24 -26 -35 -38 -17 -61 -50 -41 -57 23 -9 42 -34 42 -58 0 -29 26 -45 73 -45
56 0 97 19 97 44 0 12 13 35 30 51 28 27 30 33 29 98 -1 49 3 73 14 84 26 26
41 -18 34 -104 l-6 -74 32 3 c30 3 33 0 41 -37 4 -22 10 -46 12 -52 5 -21 32
-15 39 8 l7 21 24 -23 c34 -32 75 -17 90 31 6 19 21 39 33 45 35 16 23 42 -33
70 -14 7 -23 23 -26 50 -5 37 -9 42 -62 67 -34 17 -59 35 -63 49 -12 38 9 43
72 15 113 -51 212 -53 223 -6 3 14 15 27 25 29 52 9 57 41 15 91 -17 19 -30
42 -30 52 0 32 -28 31 -69 -1 -46 -37 -48 -37 -47 -8 1 31 -38 35 -75 8 -39
-29 -78 -43 -100 -36 -29 10 -23 19 37 59 41 27 60 48 74 81 13 31 27 46 45
51 33 8 33 41 1 54 -21 8 -25 17 -28 57 -3 41 -6 48 -26 51 -13 2 -34 -4 -48
-13 -24 -15 -26 -15 -43 6 -16 20 -18 20 -34 4z"/>
<path d="M875 10593 c-32 -8 -45 -24 -45 -53 0 -20 -6 -29 -21 -33 -12 -3
-19 -12 -17 -19 4 -13 56 -52 81 -61 8 -3 6 -10 -7 -19 -31 -24 -14 -65 30
-77 36 -10 84 -46 84 -63 0 -20 -62 -5 -108 26 -50 33 -72 33 -72 -1 0 -26
-30 -25 -61 1 -17 15 -37 25 -43 23 -17 -5 -76 -108 -76 -132 0 -11 16 -32 35
-48 19 -15 35 -37 35 -47 0 -25 10 -25 49 -3 29 17 32 17 60 0 16 -9 31 -17
34 -17 2 0 21 14 42 30 38 30 88 40 100 20 12 -19 -22 -56 -62 -68 -21 -6 -47
-18 -58 -27 -20 -15 -20 -15 5 -36 16 -14 20 -23 13 -26 -60 -21 -107 -91 -57
-86 18 2 21 -3 20 -40 l-1 -42 85 0 85 0 -3 65 c-1 49 0 61 8 48 6 -10 17 -18
25 -18 16 0 20 15 29 95 12 102 56 76 56 -33 l0 -64 31 6 31 6 -4 -53 -3 -52
47 -3 c76 -5 111 9 124 49 8 22 19 35 33 37 11 2 21 10 21 17 0 18 -48 55 -71
55 -26 0 -33 19 -15 39 9 10 16 20 16 23 0 2 -21 19 -47 35 -27 17 -59 43 -72
57 l-24 26 40 0 c32 0 50 -8 83 -35 50 -42 68 -44 76 -7 3 15 6 30 7 34 1 4
22 -8 46 -27 24 -19 47 -35 50 -35 17 0 56 94 56 133 -1 43 -36 111 -63 122
-8 3 -30 -9 -50 -25 -20 -17 -38 -27 -39 -23 0 5 -4 20 -7 36 -8 36 -26 34
-76 -8 -41 -34 -83 -45 -95 -25 -10 16 13 39 66 65 54 28 66 49 39 68 -19 13
-17 15 30 37 28 13 50 28 50 34 0 6 -12 22 -25 35 -14 13 -25 31 -25 41 0 32
-28 44 -103 44 l-72 1 3 -52 4 -51 -34 1 -33 2 0 -85 c0 -71 -3 -85 -17 -88
-12 -2 -19 9 -27 48 -6 28 -11 63 -11 79 0 15 -6 35 -13 46 -13 17 -15 17 -30
-5 -15 -22 -16 -20 -14 41 l2 64 -55 2 c-30 0 -64 -1 -75 -4z"/>
<path d="M3855 8398 c-26 -15 -35 -28 -35 -56 0 -14 -9 -27 -25 -34 -14 -6
-24 -16 -22 -22 4 -11 58 -51 80 -59 9 -3 7 -13 -6 -35 -20 -36 -25 -30 63
-75 57 -30 66 -57 17 -57 -23 0 -47 10 -72 30 -44 35 -39 34 -76 13 -28 -17
-31 -17 -63 1 -38 20 -56 15 -56 -15 0 -11 -14 -38 -31 -59 -35 -43 -33 -70 6
-88 19 -9 25 -19 25 -42 0 -25 4 -30 24 -30 13 0 40 11 60 25 45 30 43 30 42
3 -1 -33 29 -34 76 -3 50 33 103 39 103 12 0 -12 -20 -29 -60 -50 -58 -31 -60
-34 -65 -77 -4 -37 -9 -46 -28 -48 -40 -6 -52 -62 -17 -76 8 -3 24 -23 35 -46
26 -51 42 -58 76 -31 18 14 34 18 54 14 26 -5 30 -2 35 23 13 57 16 62 39 68
23 6 24 10 23 81 -2 57 2 78 15 91 15 15 17 15 28 -6 7 -12 10 -50 8 -87 -3
-64 -2 -67 26 -82 22 -12 32 -29 40 -61 7 -29 17 -46 29 -48 10 -2 17 3 17 12
0 20 11 20 36 1 24 -18 58 -19 73 -1 7 8 11 30 9 50 -1 19 0 37 2 38 3 2 14 8
24 14 31 17 30 34 -3 45 -21 7 -33 20 -38 37 -9 40 -26 60 -77 92 -30 19 -46
37 -46 50 0 30 39 26 86 -10 21 -16 51 -30 67 -30 23 0 27 4 27 26 l0 26 34
-26 c19 -14 43 -26 54 -26 22 0 47 25 38 38 -3 5 4 18 15 28 41 37 42 50 4
105 -19 28 -35 57 -35 65 0 17 -9 18 -50 0 -25 -10 -39 -11 -62 -2 -25 9 -35
7 -77 -17 -27 -15 -61 -27 -76 -27 -45 0 -26 32 40 67 33 17 61 35 62 40 2 5
-6 18 -17 28 -28 26 -25 33 20 46 22 7 47 20 56 30 15 17 15 19 -10 30 -18 8
-28 23 -32 46 -12 62 -67 77 -106 29 l-18 -21 0 23 c0 15 -6 22 -19 22 -20 0
-31 -18 -31 -51 0 -12 -14 -28 -35 -41 l-36 -20 7 -59 c7 -58 -7 -119 -27
-119 -19 0 -30 56 -24 121 l7 66 -31 11 c-22 8 -31 17 -31 32 0 30 -18 60 -35
60 -14 0 -19 -12 -16 -32 2 -14 -7 -9 -33 17 -28 28 -33 29 -61 13z"/>
<path d="M2075 6793 c-32 -8 -45 -24 -45 -53 0 -20 -6 -29 -21 -33 -12 -3
-19 -12 -17 -19 4 -13 56 -52 81 -61 8 -3 6 -10 -7 -19 -31 -24 -14 -65 30
-77 36 -10 84 -46 84 -63 0 -20 -62 -5 -108 26 -50 33 -72 33 -72 -1 0 -26
-30 -25 -61 1 -17 15 -37 25 -43 23 -17 -5 -76 -108 -76 -132 0 -11 16 -32 35
-48 19 -15 35 -37 35 -47 0 -25 10 -25 49 -3 29 17 32 17 60 0 16 -9 31 -17
34 -17 2 0 21 14 42 30 38 30 88 40 100 20 12 -19 -22 -56 -62 -68 -21 -6 -47
-18 -58 -27 -20 -15 -20 -15 5 -36 16 -14 20 -23 13 -26 -60 -21 -107 -91 -57
-86 18 2 21 -3 20 -40 l-1 -42 85 0 85 0 -3 65 c-1 49 0 61 8 48 6 -10 17 -18
25 -18 16 0 20 15 29 95 12 102 56 76 56 -33 l0 -64 31 6 31 6 -4 -53 -3 -52
47 -3 c76 -5 111 9 124 49 8 22 19 35 33 37 11 2 21 10 21 17 0 18 -48 55 -71
55 -26 0 -33 19 -15 39 9 10 16 20 16 23 0 2 -21 19 -47 35 -27 17 -59 43 -72
57 l-24 26 40 0 c32 0 50 -8 83 -35 50 -42 68 -44 76 -7 3 15 6 30 7 34 1 4
22 -8 46 -27 24 -19 47 -35 50 -35 17 0 56 94 56 133 -1 43 -36 111 -63 122
-8 3 -30 -9 -50 -25 -20 -17 -38 -27 -39 -23 0 5 -4 20 -7 36 -8 36 -26 34
-76 -8 -41 -34 -83 -45 -95 -25 -10 16 13 39 66 65 54 28 66 49 39 68 -19 13
-17 15 30 37 28 13 50 28 50 34 0 6 -12 22 -25 35 -14 13 -25 31 -25 41 0 32
-28 44 -103 44 l-72 1 3 -52 4 -51 -34 1 -33 2 0 -85 c0 -71 -3 -85 -17 -88
-12 -2 -19 9 -27 48 -6 28 -11 63 -11 79 0 15 -6 35 -13 46 -13 17 -15 17 -30
-5 -15 -22 -16 -20 -14 41 l2 64 -55 2 c-30 0 -64 -1 -75 -4z"/>
<path d="M7075 6793 c-32 -8 -45 -24 -45 -53 0 -20 -6 -29 -21 -33 -12 -3
-19 -12 -17 -19 4 -13 56 -52 81 -61 8 -3 6 -10 -7 -19 -31 -24 -14 -65 30
-77 36 -10 84 -46 84 -63 0 -20 -62 -5 -108 26 -50 33 -72 33 -72 -1 0 -26
-30 -25 -61 1 -17 15 -37 25 -43 23 -17 -5 -76 -108 -76 -132 0 -11 16 -32 35
-48 19 -15 35 -37 35 -47 0 -25 10 -25 49 -3 29 17 32 17 60 0 16 -9 31 -17
34 -17 2 0 21 14 42 30 38 30 88 40 100 20 12 -19 -22 -56 -62 -68 -21 -6 -47
-18 -58 -27 -20 -15 -20 -15 5 -36 16 -14 20 -23 13 -26 -60 -21 -107 -91 -57
-86 18 2 21 -3 20 -40 l-1 -42 85 0 85 0 -3 65 c-1 49 0 61 8 48 6 -10 17 -18
25 -18 16 0 20 15 29 95 12 102 56 76 56 -33 l0 -64 31 6 31 6 -4 -53 -3 -52
47 -3 c76 -5 111 9 124 49 8 22 19 35 33 37 11 2 21 10 21 17 0 18 -48 55 -71
55 -26 0 -33 19 -15 39 9 10 16 20 16 23 0 2 -21 19 -47 35 -27 17 -59 43 -72
57 l-24 26 40 0 c32 0 50 -8 83 -35 50 -42 68 -44 76 -7 3 15 6 30 7 34 1 4
22 -8 46 -27 24 -19 47 -35 50 -35 17 0 56 94 56 133 -1 43 -36 111 -63 122
-8 3 -30 -9 -50 -25 -20 -17 -38 -27 -39 -23 0 5 -4 20 -7 36 -8 36 -26 34
-76 -8 -41 -34 -83 -45 -95 -25 -10 16 13 39 66 65 54 28 66 49 39 68 -19 13
-17 15 30 37 28 13 50 28 50 34 0 6 -12 22 -25 35 -14 13 -25 31 -25 41 0 32
-28 44 -103 44 l-72 1 3 -52 4 -51 -34 1 -33 2 0 -85 c0 -71 -3 -85 -17 -88
-12 -2 -19 9 -27 48 -6 28 -11 63 -11 79 0 15 -6 35 -13 46 -13 17 -15 17 -30
-5 -15 -22 -16 -20 -14 41 l2 64 -55 2 c-30 0 -64 -1 -75 -4z"/>
<path d="M4652 5220 c-16 -13 -32 -18 -52 -14 -29 6 -30 5 -44 -57 -4 -17 -14
-29 -30 -33 -23 -6 -24 -9 -23 -81 2 -57 -2 -78 -15 -91 -15 -15 -17 -15 -28
6 -7 12 -10 50 -8 87 3 64 2 67 -26 82 -22 12 -32 29 -40 61 -7 29 -17 46 -28
48 -11 2 -18 -3 -18 -12 0 -20 -11 -20 -36 -1 -24 18 -58 19 -73 1 -7 -8 -11
-30 -9 -50 1 -19 0 -37 -2 -38 -3 -2 -14 -8 -24 -14 -31 -17 -30 -34 3 -45 21
-7 33 -20 38 -37 9 -40 26 -60 77 -92 30 -19 46 -37 46 -50 0 -30 -39 -26 -86
10 -21 16 -51 30 -66 30 -24 0 -28 -4 -28 -26 l0 -26 -34 26 c-19 14 -43 26
-54 26 -22 0 -47 -25 -38 -38 3 -5 -4 -18 -15 -28 -41 -37 -42 -50 -4 -105 19
-28 35 -57 35 -65 0 -17 9 -18 50 0 25 10 39 11 62 2 25 -9 35 -7 77 17 27 15
61 27 76 27 45 0 26 -32 -40 -67 -33 -17 -61 -35 -62 -40 -2 -5 6 -18 17 -28
28 -26 25 -33 -20 -46 -22 -7 -47 -20 -56 -30 -15 -17 -15 -19 10 -30 18 -8
28 -23 32 -46 12 -62 67 -77 106 -29 l18 21 0 -22 c0 -16 6 -23 19 -23 20 0
31 18 31 51 0 12 14 28 35 41 l36 20 -7 59 c-7 58 7 119 27 119 19 0 30 -56
24 -121 l-7 -66 31 -11 c22 -8 31 -17 31 -32 0 -30 18 -60 35 -60 14 0 19 12
16 33 0 4 4 7 9 7 6 0 10 -4 10 -10 0 -5 11 -17 24 -25 20 -14 29 -14 48 -4
29 15 38 28 38 57 0 14 9 27 25 34 14 6 24 16 22 22 -4 11 -58 51 -80 59 -9 3
-7 13 6 35 20 36 25 30 -63 75 -57 30 -66 57 -17 57 23 0 47 -10 72 -30 44
-35 39 -34 76 -13 28 17 31 17 63 -1 38 -20 56 -15 56 15 0 11 14 38 31 59 35
43 33 70 -6 88 -19 9 -25 19 -25 42 0 25 -4 30 -24 30 -13 0 -40 -11 -60 -25
-45 -30 -43 -30 -42 -3 1 33 -29 34 -76 3 -50 -33 -103 -39 -103 -12 0 12 20
29 60 50 58 31 60 34 65 77 4 35 9 46 25 48 19 3 45 28 45 42 0 4 -12 20 -27
37 -16 16 -36 44 -45 61 -20 37 -34 39 -66 12z"/>
<path d="M6075 3093 c-32 -8 -45 -24 -45 -53 0 -20 -6 -29 -21 -33 -12 -3
-19 -12 -17 -19 4 -13 56 -52 81 -61 8 -3 6 -10 -7 -19 -31 -24 -14 -65 30
-77 36 -10 84 -46 84 -63 0 -20 -62 -5 -108 26 -50 33 -72 33 -72 -1 0 -26
-30 -25 -61 1 -17 15 -37 25 -43 23 -17 -5 -76 -108 -76 -132 0 -11 16 -32 35
-48 19 -15 35 -37 35 -47 0 -25 10 -25 49 -3 29 17 32 17 60 0 16 -9 31 -17
34 -17 2 0 21 14 42 30 38 30 88 40 100 20 12 -19 -22 -56 -62 -68 -21 -6 -47
-18 -58 -27 -20 -15 -20 -15 5 -36 16 -14 20 -23 13 -26 -60 -21 -107 -91 -57
-86 18 2 21 -3 20 -40 l-1 -42 85 0 85 0 -3 65 c-1 49 0 61 8 48 6 -10 17 -18
25 -18 16 0 20 15 29 95 12 102 56 76 56 -33 l0 -64 31 6 31 6 -4 -53 -3 -52
47 -3 c76 -5 111 9 124 49 8 22 19 35 33 37 11 2 21 10 21 17 0 18 -48 55 -71
55 -26 0 -33 19 -15 39 9 10 16 20 16 23 0 2 -21 19 -47 35 -27 17 -59 43 -72
57 l-24 26 40 0 c32 0 50 -8 83 -35 50 -42 68 -44 76 -7 3 15 6 30 7 34 1 4
22 -8 46 -27 24 -19 47 -35 50 -35 17 0 56 94 56 133 -1 43 -36 111 -63 122
-8 3 -30 -9 -50 -25 -20 -17 -38 -27 -39 -23 0 5 -4 20 -7 36 -8 36 -26 34
-76 -8 -41 -34 -83 -45 -95 -25 -10 16 13 39 66 65 54 28 66 49 39 68 -19 13
-17 15 30 37 28 13 50 28 50 34 0 6 -12 22 -25 35 -14 13 -25 31 -25 41 0 32
-28 44 -103 44 l-72 1 3 -52 4 -51 -34 1 -33 2 0 -85 c0 -71 -3 -85 -17 -88
-12 -2 -19 9 -27 48 -6 28 -11 63 -11 79 0 15 -6 35 -13 46 -13 17 -15 17 -30
-5 -15 -22 -16 -20 -14 41 l2 64 -55 2 c-30 0 -64 -1 -75 -4z"/>
<path d="M1487 1817 c-10 -6 -21 -26 -25 -42 -5 -17 -18 -34 -30 -40 -36 -16
-24 -42 32 -70 14 -7 23 -23 26 -50 5 -37 9 -42 62 -67 34 -17 59 -35 63 -49
12 -38 -9 -43 -72 -15 -113 51 -212 53 -223 6 -3 -14 -15 -27 -25 -29 -52 -9
-57 -41 -15 -91 17 -19 30 -42 30 -52 0 -32 28 -31 69 1 46 37 48 37 47 9 -1
-32 38 -36 75 -9 39 29 78 43 100 36 29 -10 23 -19 -37 -59 -41 -27 -60 -48
-74 -81 -13 -31 -27 -46 -45 -51 -33 -8 -33 -41 -1 -54 21 -8 25 -17 28 -57 3
-41 6 -48 26 -51 13 -2 34 4 48 13 24 15 26 15 43 -6 16 -20 18 -20 34 -4 10
10 17 32 17 56 0 35 3 41 30 50 28 10 30 14 30 62 0 98 32 103 47 7 7 -51 10
-55 38 -60 28 -5 30 -8 27 -45 -2 -25 3 -48 12 -60 16 -19 16 -19 30 -1 14 17
16 17 38 2 46 -32 98 -8 98 46 0 17 7 27 20 31 13 3 20 14 20 31 0 20 -8 29
-34 40 -30 12 -34 19 -33 47 2 34 1 35 -95 94 -18 11 -33 27 -33 35 0 26 39
22 87 -10 55 -37 93 -37 92 -2 0 12 1 22 2 22 2 0 24 -14 48 -32 45 -31 46
-31 66 -13 11 10 19 24 16 31 -2 6 9 24 25 40 16 15 29 32 29 37 0 5 -13 21
-29 36 -22 20 -28 34 -24 50 3 11 0 28 -7 36 -11 14 -16 14 -39 -1 -14 -9 -38
-28 -53 -41 l-27 -25 -3 33 c-3 29 -6 34 -27 31 -13 -1 -38 -15 -57 -31 -40
-35 -72 -47 -87 -32 -17 17 1 40 64 83 53 36 56 43 44 83 -5 17 0 24 26 35 38
17 61 50 41 57 -23 9 -42 34 -42 58 0 29 -26 45 -73 45 -56 0 -97 -19 -97 -44
0 -12 -13 -35 -30 -51 -28 -27 -30 -33 -29 -98 1 -49 -3 -73 -14 -84 -26 -26
-41 18 -34 104 l6 74 -32 -3 c-30 -3 -33 0 -41 37 -4 22 -10 46 -12 53 -5 20
-32 14 -39 -9 l-7 -21 -22 21 c-26 24 -45 26 -69 8z"/>
<path d="M3250 801 c-17 -4 -29 -18 -36 -41 -8 -23 -19 -36 -33 -38 -11 -2
-21 -10 -21 -17 0 -18 48 -55 71 -55 26 0 33 -19 15 -39 -9 -10 -16 -20 -16
-23 0 -2 21 -19 48 -35 26 -17 58 -43 71 -57 l24 -26 -40 0 c-32 0 -50 8 -83
35 -50 42 -68 44 -76 8 -3 -16 -6 -31 -7 -35 -1 -4 -22 8 -46 27 -24 19 -47
35 -50 35 -17 0 -56 -94 -56 -133 1 -43 36 -111 63 -122 8 -3 30 9 50 25 20
17 38 27 39 23 0 -5 4 -20 7 -35 8 -37 26 -35 76 7 41 34 83 45 95 25 10 -16
-13 -39 -66 -65 -54 -28 -66 -49 -39 -68 19 -13 17 -15 -30 -37 -28 -13 -50
-28 -50 -34 0 -6 12 -22 25 -35 14 -13 25 -31 25 -41 0 -32 28 -44 103 -44
l72 -1 -3 52 -4 51 34 -1 33 -2 0 85 c0 71 3 85 17 88 12 2 19 -9 27 -48 6
-28 11 -63 11 -79 0 -15 6 -35 13 -46 13 -17 15 -17 30 5 15 22 16 20 14 -41
l-2 -64 72 1 c80 0 103 12 103 54 0 20 6 29 21 33 12 3 19 12 17 19 -4 13 -56
52 -81 61 -8 3 -6 10 7 19 31 24 14 65 -30 77 -36 10 -84 46 -84 63 0 20 62 5
108 -26 50 -33 72 -33 72 1 0 26 30 25 61 -1 17 -15 37 -25 43 -23 17 5 76
108 76 132 0 11 -16 32 -35 48 -19 15 -35 37 -35 47 0 25 -10 25 -49 3 -29
-17 -32 -17 -60 0 -16 9 -31 17 -34 17 -2 0 -21 -13 -42 -30 -38 -30 -88 -40
-100 -20 -12 19 22 56 62 68 21 6 47 18 58 27 20 15 20 15 -5 36 -16 14 -20
23 -13 26 60 21 107 91 57 86 -18 -2 -21 3 -20 40 l1 42 -85 0 -85 0 3 -65 c1
-49 0 -61 -8 -47 -6 9 -17 17 -25 17 -16 0 -20 -15 -29 -95 -12 -102 -56 -76
-56 33 l0 65 -31 -7 -31 -6 4 53 3 52 -55 2 c-30 1 -66 -2 -80 -6z"/>
</g>
</svg>